<?xml version="1.0" encoding="utf-8"?>
<!-- Generator: Adobe Illustrator 18.0.0, SVG Export Plug-In . SVG Version: 6.00 Build 0)  -->
<!DOCTYPE svg PUBLIC "-//W3C//DTD SVG 1.1//EN" "http://www.w3.org/Graphics/SVG/1.1/DTD/svg11.dtd">
<svg version="1.1" xmlns="http://www.w3.org/2000/svg" xmlns:xlink="http://www.w3.org/1999/xlink" x="0px" y="0px"
	 viewBox="0 0 534 534" enable-background="new 0 0 534 534" xml:space="preserve">
<g id="Ebene_1">
	<g>
		<circle fill="#FFFFFF" stroke="#4D87EF" stroke-width="10" stroke-miterlimit="10" cx="267.6" cy="269.2" r="240.9"/>
		<circle fill="#4D87EF" cx="267.9" cy="269.2" r="216.2"/>
		<path fill="#FFFFFF" d="M211.7,348.3c0,0,1.1-7.3,5.7-12.2c4.6-4.9,8.8-6.8,8.8-6.8s11.8,19.7,40,19.7c28.4,0,40-19.7,40-19.7
			s7,3,10.2,8.8c3.2,5.8,4.2,10.5,4.2,10.5s-7.4,13-20.3,19.4c-12.8,6.4-34.1,12-34.1,12s-18.8-4.4-30.7-10.2
			C214.3,359.1,211.7,348.3,211.7,348.3z"/>
		<path fill="#FFFFFF" d="M328.7,261.8c0.9-6,2.1-12,3.6-18.6c0-10.9-2.3-21.2-7.3-30.4V181c0,0-22.3-26.8-59.3-26.8
			c-36,0-59.7,26.5-59.7,26.5l0,0V213h0.4c-4.3,9-6.8,19.3-6.8,30.1c1.2,5.8,3.6,14.3,4,18.8c-0.2,4.5-0.2,8.6,0,12.3
			c0,0.8,0,1.7,0,2.6c0,37.6,27.8,61.9,62.3,61.9c34.5,0,62.8-24.3,62.8-61.9c0-1.8-0.1-3.5-0.2-5.2
			C328.7,268.6,328.8,265.4,328.7,261.8z"/>
		<path fill="#FFFFFF" d="M320.2,72c-12.9,0-24.7,4.8-33.7,12.7c-7.3-5.6-16.5-8.9-26.4-8.9c-16.6,0-31,9.3-38.4,22.9
			c-4.1-1.9-8.7-3-13.5-3c-17.9,0-32.3,14.6-32.3,32.6c0,6,1.6,11.7,4.5,16.5c-7,5.7-11.4,14.5-11.4,24.2c0,17.3,13.8,31.3,31,31.3
			c0.4,0,0.1,0,1.1,0V178h0.1c0,0,22.4-29.8,64-30.4c35.3-0.6,55.7,19.2,62.7,27.4c24.8-3.8,43.7-25.2,43.7-51.2
			C371.6,95.2,348.6,72,320.2,72z"/>
		<path fill="#FFFFFF" d="M428.9,150.9c0,0-11.7,17-45.2,90.8s-38.4,84.1-47.8,103.6c-9.5,19.5-53.2,104.8-52.6,107
			c0.7,2.2,2.7,9.7,10.9,13.4c8.2,3.8,17.2,2.8,18.9,1.7s56.1-135.7,56.1-135.7s21-0.1,24.6-3.1c3.6-3,33.1-72.1,41.4-104.2
			C451.9,160.1,428.9,150.9,428.9,150.9z"/>
		<path fill="#FFFFFF" d="M118.7,151.5c-2.8,1.5,33,72.8,33,72.8s0.1,2.8-2.5,4.1c-2.6,1.2-4.9-0.9-4.9-0.9S107.2,157,105.1,158
			c-2.1,1,31.1,73.2,31.1,73.2s-0.6,3.2-3.1,4.4c-2.4,1.1-4.6-0.3-4.6-0.3s-35-70.7-37.7-69.5c-2.8,1.2,30.2,73.1,30.2,73.1
			s-0.1,2.7-2.9,4c-2.7,1.3-4.5-0.4-4.5-0.4s-32.2-72.2-36-70.5c-3.8,1.7,36.7,95.3,40.5,101c3.3,4.9,20.7,5.8,25.3,5.9
			c1.7,3.9,86.5,198,87.7,199.3c1.2,1.3,5.7,5.3,17.4-0.3c11.7-5.6,12.1-11.6,11.5-13.7c-0.6-2.1-99-193.8-99-193.8
			s13.2-15.5,11-24.9C169.8,235,121.5,150,118.7,151.5z"/>
		<rect x="176" y="389.3" fill="#4D87EF" width="175.7" height="72"/>
		<path fill="#FFFFFF" d="M326.7,349.3c-2.6,5.6-8.1,14.4-18.7,21c-15.1,9.5-41.8,15.6-41.8,15.6s-23.8-5.1-37.8-13.3
			c-17.2-10-21.5-19.1-22.4-23.9c-37.3,11.8-62.6,34.2-62.6,59.2H143v52.2l123.2,34.6l124.5-33.6l-1.8-52.5
			C388.9,383.2,363.9,361,326.7,349.3z M219,460.7c-5.5,0-9.9-4.4-9.9-9.9c0-5.5,4.4-9.9,9.9-9.9c5.5,0,9.9,4.4,9.9,9.9
			C228.9,456.3,224.5,460.7,219,460.7z M219,415.3c-5.5,0-9.9-4.4-9.9-9.9c0-5.5,4.4-9.9,9.9-9.9c5.5,0,9.9,4.4,9.9,9.9
			C228.9,410.8,224.5,415.3,219,415.3z M310.9,460.7c-5.5,0-9.9-4.4-9.9-9.9c0-5.5,4.4-9.9,9.9-9.9s9.9,4.4,9.9,9.9
			C320.8,456.3,316.4,460.7,310.9,460.7z M310.9,415.3c-5.5,0-9.9-4.4-9.9-9.9c0-5.5,4.4-9.9,9.9-9.9s9.9,4.4,9.9,9.9
			C320.8,410.8,316.4,415.3,310.9,415.3z"/>
		<path fill="none" stroke="#4D87EF" stroke-width="6" stroke-miterlimit="10" d="M327.7,346.3c-1.8-0.8,27.7,9.9,39.7,19.8"/>
		<path fill="#4D87EF" d="M221.7,275.6c0,0,4.8,5.8,10.4,5.3c5.3-0.5,9.9-5.1,12.6-9.6c7.2-11.6,14.5-9.4,18.5-6.8
			c1.7,1.1,3.8,3.2,4.2,6.9c0.4,3.1-0.3,4.7-0.3,4.7s-2.4,5.2-8.2,9.6c-6.2,4.7-11.2,6.1-16.6,6.2c-5.4,0.1-9.2-0.8-14.7-5.4
			C222.7,282.4,221.7,275.6,221.7,275.6z"/>
		<path fill="#4D87EF" d="M312.8,275.6c0,0-4.8,5.8-10.4,5.3c-5.3-0.5-9.9-5.1-12.6-9.6c-7.2-11.6-14.5-9.4-18.5-6.8
			c-1.7,1.1-3.8,3.2-4.2,6.9c-0.4,3.1,0.3,4.7,0.3,4.7s2.4,5.2,8.2,9.6c6.2,4.7,11.2,6.1,16.6,6.2c5.4,0.1,9.2-0.8,14.7-5.4
			C311.8,282.4,312.8,275.6,312.8,275.6z"/>
		<circle fill="none" stroke="#4D87EF" stroke-width="10" stroke-miterlimit="10" cx="267.9" cy="269.2" r="216.2"/>
		<rect x="-47" y="-50" fill="none" width="627.7" height="627.7"/>
		<path fill="none" stroke="#4D87EF" stroke-width="6" stroke-miterlimit="10" d="M206.4,345.3c1.8-0.8-27.7,9.9-39.7,19.8"/>
	</g>
</g>
<g id="Ebene_2" display="none">
	<path display="inline" fill="#FFFF00" d="M425,186.2c0,0-11.9,17.4-46.1,92.7s-39.2,85.9-48.8,105.8
		c-9.7,19.9-54.3,107.1-53.7,109.3c0.6,2.2,2.6,9.8,10.8,13.6c8.2,3.8,17.3,2.7,19,1.6c1.7-1.1,57.4-138.6,57.4-138.6
		s21.1-0.3,24.7-3.4s33.8-73.7,42.4-106.4C448,195.4,425,186.2,425,186.2z"/>
	<path display="inline" fill="#FFFF00" d="M125.7,182.5c-2.8,1.5,33,72.8,33,72.8s0.1,2.8-2.5,4.1c-2.6,1.2-4.9-0.9-4.9-0.9
		S114.2,188,112.1,189c-2.1,1,31.1,73.2,31.1,73.2s-0.6,3.2-3.1,4.4c-2.4,1.1-4.6-0.3-4.6-0.3s-35-70.7-37.7-69.5
		c-2.8,1.2,30.2,73.1,30.2,73.1s-0.1,2.7-2.9,4c-2.7,1.3-4.5-0.4-4.5-0.4s-32.2-72.2-36-70.5c-3.8,1.7,36.7,95.3,40.5,101
		c3.3,4.9,20.7,5.8,25.3,5.9c1.7,3.9,86.5,198,87.7,199.3c1.2,1.3,5.7,5.3,17.4-0.3c11.7-5.6,12.1-11.6,11.5-13.7
		c-0.6-2.1-99-193.8-99-193.8s13.2-15.5,11-24.9C176.8,266,128.5,181,125.7,182.5z"/>
</g>
</svg>
