<?xml version="1.0" encoding="utf-8"?>
<!-- Generator: Adobe Illustrator 18.0.0, SVG Export Plug-In . SVG Version: 6.00 Build 0)  -->
<!DOCTYPE svg PUBLIC "-//W3C//DTD SVG 1.1//EN" "http://www.w3.org/Graphics/SVG/1.1/DTD/svg11.dtd">
<svg version="1.1" id="Ebene_1" xmlns="http://www.w3.org/2000/svg"  height = "500px" width = "500px" x="0px" y="0px"
	 viewBox="0 0 941.2 941.2" enable-background="new 0 0 941.2 941.2" xml:space="preserve">
<circle fill="#FFFFFF" stroke="#EF6A35" stroke-width="10" stroke-miterlimit="10" cx="470.4" cy="471" r="221.4"/>
	<circle class="first-circle" fill="none" stroke="#EF6A35" stroke-width="10" stroke-miterlimit="10" cx="470.4" cy="471" r="221.4"/>
<circle class="second-circle" fill="none" stroke="#EF6A35" stroke-width="10" stroke-miterlimit="10" cx="470.4" cy="471" r="221.4"/>
<circle fill="#EF6A35" cx="470.7" cy="472.2" r="198.7"/>
<path fill="#FFFFFF" d="M419,544.8c0,0,1-6.7,5.2-11.2c4.2-4.5,8.1-6.2,8.1-6.2s10.8,18.1,36.8,18.1c26.1,0,36.8-18.1,36.8-18.1
	s6.4,2.8,9.4,8.1c2.9,5.3,3.9,9.6,3.9,9.6s-6.8,11.9-18.7,17.8c-11.8,5.9-31.3,11-31.3,11s-17.3-4-28.2-9.4
	C421.4,554.8,419,544.8,419,544.8z"/>
<path fill="#FFFFFF" d="M526.5,465.3c0.8-5.5,1.9-11,3.3-17.1c0-10-2.1-19.5-6.7-27.9v-29.2c0,0-20.5-24.6-54.5-24.6
	c-33.1,0-54.9,24.4-54.9,24.4l0,0v29.7h0.4c-4,8.3-6.2,17.7-6.2,27.7c1.1,5.3,3.3,13.1,3.7,17.3c-0.2,4.1-0.2,7.9,0,11.3
	c0,0.7,0,1.6,0,2.4c0,34.6,25.5,56.9,57.3,56.9s57.7-22.3,57.7-56.9c0-1.7-0.1-3.2-0.2-4.8C526.5,471.6,526.6,468.7,526.5,465.3z"/>
<path fill="#FFFFFF" d="M518.7,290.9c-11.9,0-22.7,4.4-31,11.7c-6.7-5.1-15.2-8.2-24.3-8.2c-15.3,0-28.5,8.5-35.3,21
	c-3.8-1.7-8-2.8-12.4-2.8c-16.5,0-29.7,13.4-29.7,30c0,5.5,1.5,10.8,4.1,15.2c-6.4,5.2-10.5,13.3-10.5,22.2
	c0,15.9,12.7,28.8,28.5,28.8c0.4,0,0.1,0,1,0v-20.5h0.1c0,0,20.6-27.4,58.8-27.9c32.4-0.6,51.2,17.6,57.6,25.2
	c22.8-3.5,40.2-23.2,40.2-47.1C566,312.2,544.8,290.9,518.7,290.9z"/>
<path fill="#FFFFFF" d="M524.7,545.8c-2.4,5.1-7.4,13.2-17.2,19.3c-13.9,8.7-38.4,14.3-38.4,14.3s-21.9-4.7-34.7-12.2
	c-15.8-9.2-19.8-17.6-20.6-22c-34.3,10.8-57.5,31.4-57.5,54.4h-0.4v48l113.2,31.8l114.4-30.9l-1.7-48.2
	C581.9,576.9,558.9,556.5,524.7,545.8z M425.7,648.1c-5.1,0-9.1-4-9.1-9.1c0-5.1,4-9.1,9.1-9.1c5.1,0,9.1,4,9.1,9.1
	C434.8,644.1,430.8,648.1,425.7,648.1z M425.7,606.4c-5.1,0-9.1-4-9.1-9.1s4-9.1,9.1-9.1c5.1,0,9.1,4,9.1,9.1
	C434.8,602.3,430.8,606.4,425.7,606.4z M510.2,648.1c-5.1,0-9.1-4-9.1-9.1c0-5.1,4-9.1,9.1-9.1s9.1,4,9.1,9.1
	C519.3,644.1,515.2,648.1,510.2,648.1z M510.2,606.4c-5.1,0-9.1-4-9.1-9.1s4-9.1,9.1-9.1s9.1,4,9.1,9.1
	C519.3,602.3,515.2,606.4,510.2,606.4z"/>
<path fill="#FFFFFF" d="M523.9,583.4l-5.2-2c-3.1-1.2-4.7-4.7-3.5-7.8l66.5-175.3c1.2-3.1,4.7-4.7,7.8-3.5l5.2,2
	c3.1,1.2,4.7,4.7,3.5,7.8l-66.5,175.3C530.5,583.1,527,584.6,523.9,583.4z"/>
<path fill="#FFFFFF" d="M545.1,586.9l-13.9-5.2c-3.1-1.2-4.7-4.7-3.5-7.8l32.7-86c1.2-3.1,4.7-4.7,7.8-3.5l13.9,5.2
	c3.1,1.2,4.7,4.7,3.5,7.8l-32.7,86C551.8,586.6,548.2,588.1,545.1,586.9z"/>
<path fill="none" stroke="#EF6A35" stroke-width="6" stroke-miterlimit="10" d="M525.6,543c-1.7-0.7,25.5,9.1,36.5,18.2"/>
<path fill="#EF6A35" d="M428.2,478c0,0,4.4,5.3,9.6,4.9c4.9-0.5,9.1-4.7,11.6-8.8c6.6-10.7,13.3-8.6,17-6.2c1.6,1,3.5,2.9,3.9,6.3
	c0.4,2.8-0.3,4.3-0.3,4.3s-2.2,4.8-7.5,8.8c-5.7,4.3-10.3,5.6-15.3,5.7c-5,0.1-8.5-0.7-13.5-5C429.1,484.3,428.2,478,428.2,478z"/>
<path fill="#EF6A35" d="M511.9,478c0,0-4.4,5.3-9.6,4.9c-4.9-0.5-9.1-4.7-11.6-8.8c-6.6-10.7-13.3-8.6-17-6.2
	c-1.6,1-3.5,2.9-3.9,6.3c-0.4,2.8,0.3,4.3,0.3,4.3s2.2,4.8,7.5,8.8c5.7,4.3,10.3,5.6,15.3,5.7c5,0.1,8.5-0.7,13.5-5
	C511,484.3,511.9,478,511.9,478z"/>
<rect x="490.4" y="584.1" fill="#FFFFFF" width="42.9" height="29"/>
<path fill="none" stroke="#EF6A35" stroke-width="6" stroke-miterlimit="10" d="M540.9,547.3c0,0-26.2,56-117.3,117.9"/>
<circle fill="none" stroke="#EF6A35" stroke-width="10" stroke-miterlimit="10" cx="470.7" cy="472.2" r="198.7"/>
<rect x="461.4" y="649.7" fill="#FFFFFF" stroke="#EF6A35" stroke-width="10" stroke-miterlimit="10" width="18.7" height="62.5"/>
<rect x="461.4" y="228.4" fill="#FFFFFF" stroke="#EF6A35" stroke-width="9" stroke-miterlimit="10" width="18.7" height="60.1"/>
<rect x="649.5" y="462.9" fill="#FFFFFF" stroke="#EF6A35" stroke-width="10" stroke-miterlimit="10" width="63.7" height="18.7"/>
<rect x="230" y="464" fill="#FFFFFF" stroke="#EF6A35" stroke-width="10" stroke-miterlimit="10" width="64.3" height="18.7"/>
</svg>
